<mxfile host="Electron" agent="Mozilla/5.0 (Windows NT 10.0; Win64; x64) AppleWebKit/537.36 (KHTML, like Gecko) draw.io/24.7.17 Chrome/128.0.6613.36 Electron/32.0.1 Safari/537.36" version="24.7.17">
  <diagram name="Page-1" id="gKoZ-5HeSs5fMvcXOuUg">
    <mxGraphModel dx="530" dy="316" grid="1" gridSize="10" guides="1" tooltips="1" connect="1" arrows="1" fold="1" page="1" pageScale="1" pageWidth="850" pageHeight="1100" math="0" shadow="0">
      <root>
        <mxCell id="0" />
        <mxCell id="1" parent="0" />
        <mxCell id="sLFbqeaXtgujT4lSb9UE-4" value="" style="edgeStyle=orthogonalEdgeStyle;rounded=0;orthogonalLoop=1;jettySize=auto;html=1;" edge="1" parent="1" source="sLFbqeaXtgujT4lSb9UE-1" target="sLFbqeaXtgujT4lSb9UE-3">
          <mxGeometry relative="1" as="geometry" />
        </mxCell>
        <mxCell id="sLFbqeaXtgujT4lSb9UE-1" value="START" style="rounded=1;whiteSpace=wrap;html=1;arcSize=50;" vertex="1" parent="1">
          <mxGeometry x="360" y="20" width="80" height="40" as="geometry" />
        </mxCell>
        <mxCell id="sLFbqeaXtgujT4lSb9UE-6" value="" style="edgeStyle=orthogonalEdgeStyle;rounded=0;orthogonalLoop=1;jettySize=auto;html=1;" edge="1" parent="1" source="sLFbqeaXtgujT4lSb9UE-3" target="sLFbqeaXtgujT4lSb9UE-5">
          <mxGeometry relative="1" as="geometry" />
        </mxCell>
        <mxCell id="sLFbqeaXtgujT4lSb9UE-3" value="รับข้อมูล &quot;#เช่น A B C D&quot;" style="shape=parallelogram;perimeter=parallelogramPerimeter;whiteSpace=wrap;html=1;fixedSize=1;" vertex="1" parent="1">
          <mxGeometry x="310" y="110" width="180" height="60" as="geometry" />
        </mxCell>
        <mxCell id="sLFbqeaXtgujT4lSb9UE-8" value="" style="edgeStyle=orthogonalEdgeStyle;rounded=0;orthogonalLoop=1;jettySize=auto;html=1;" edge="1" parent="1" source="sLFbqeaXtgujT4lSb9UE-5" target="sLFbqeaXtgujT4lSb9UE-7">
          <mxGeometry relative="1" as="geometry" />
        </mxCell>
        <mxCell id="sLFbqeaXtgujT4lSb9UE-5" value="&quot;Result: #เอาต์พุต D B C A&quot;" style="shape=parallelogram;perimeter=parallelogramPerimeter;whiteSpace=wrap;html=1;fixedSize=1;" vertex="1" parent="1">
          <mxGeometry x="310" y="250" width="180" height="60" as="geometry" />
        </mxCell>
        <mxCell id="sLFbqeaXtgujT4lSb9UE-7" value="END" style="rounded=1;whiteSpace=wrap;html=1;arcSize=50;" vertex="1" parent="1">
          <mxGeometry x="360" y="380" width="80" height="40" as="geometry" />
        </mxCell>
      </root>
    </mxGraphModel>
  </diagram>
</mxfile>
